PathFileType	4	(X/Y/Z)	Walk8.trc
DataRate	CameraRate	NumFrames	NumMarkers	Units	OrigDataRate	OrigDataStartFrame	OrigNumFrames
200.000000	200.000000	6	61	mm	200.000000	587	754
Frame#	Times		RCAR		LUA1		LCAR		LFA1		LWRU		RTB3		RFHD		LElbow		RToe		LTH3		RTH2		RMT5		LWRR		LElbowM		RTB2		RMT1		LFHD		RPSI		STRN		RLFC		C7		RTH1		LTH4		RFA1		LTH2		T10		LLFC		RLMAL		LASI		CLAV		LPSI		RUA1		RBack		RTH3		RElbowM		LACR1		LCAL		RElbow		LMFC		LTB1		RWRR		RTH4		LTB2		LMT5		RTB4		RACR1		RMFC		LTB3		RMMAL		LTB4		LLMAL		LToe		RBHD		RWRU		RTB1		LTH1		LMMAL		LBHD		RCAL		LMT1		RASI
			X1	Y1	Z1	X2	Y2	Z2	X3	Y3	Z3	X4	Y4	Z4	X5	Y5	Z5	X6	Y6	Z6	X7	Y7	Z7	X8	Y8	Z8	X9	Y9	Z9	X10	Y10	Z10	X11	Y11	Z11	X12	Y12	Z12	X13	Y13	Z13	X14	Y14	Z14	X15	Y15	Z15	X16	Y16	Z16	X17	Y17	Z17	X18	Y18	Z18	X19	Y19	Z19	X20	Y20	Z20	X21	Y21	Z21	X22	Y22	Z22	X23	Y23	Z23	X24	Y24	Z24	X25	Y25	Z25	X26	Y26	Z26	X27	Y27	Z27	X28	Y28	Z28	X29	Y29	Z29	X30	Y30	Z30	X31	Y31	Z31	X32	Y32	Z32	X33	Y33	Z33	X34	Y34	Z34	X35	Y35	Z35	X36	Y36	Z36	X37	Y37	Z37	X38	Y38	Z38	X39	Y39	Z39	X40	Y40	Z40	X41	Y41	Z41	X42	Y42	Z42	X43	Y43	Z43	X44	Y44	Z44	X45	Y45	Z45	X46	Y46	Z46	X47	Y47	Z47	X48	Y48	Z48	X49	Y49	Z49	X50	Y50	Z50	X51	Y51	Z51	X52	Y52	Z52	X53	Y53	Z53	X54	Y54	Z54	X55	Y55	Z55	X56	Y56	Z56	X57	Y57	Z57	X58	Y58	Z58	X59	Y59	Z59	X60	Y60	Z60	X61	Y61	Z61

587	2.935	222.41	854.8	396.88	33.387	1318.1	-210.14	161.56	859.07	-264.27	38.907	1016	-256.01	86.574	889.11	-250.69	106.73	190.6	114.11	50.099	1655	-10.114	3.3682	1164.5	-241.66	244.01	31.669	131.14	129.26	623.49	-151.1	176.15	716.77	199.03	140.44	24.233	186.11	156.12	909.39	-209.14	-21.924	1150.1	-168.29	99.114	275.8	187.27	192	39.862	107.83	61.764	1659.7	130.67	-72.292	1036.3	104.16	207.89	1264.6	35.518	103.61	500.62	207.28	29.676	1524.1	62.762	104.73	808.32	240.76	111.12	714.21	-154.29	108.18	1003.5	392.35	180.16	729.35	-139.52	-74.746	1301.4	62.849	130.92	528.54	-147.5	47.578	70.13	150.79	121.75	1048.8	-92.716	159.98	1437.3	49.524	-80.719	1031.3	26.862	94.222	1299.9	317.1	-37.18	1430.4	195.88	109.98	618.43	218.01	34.766	1125.8	293.56	86.183	1485.7	-111.04	-195.47	182.96	-45.665	65.443	1148.1	365.38	177.65	524.7	-26.364	121.32	385.67	-88.419	210.1	890.08	341.05	110.92	710.85	232.3	27.721	348.79	-146.57	-96.855	86.115	-148.01	125.83	281.16	122.88	116.59	1467.8	213.67	112.05	517.2	76.191	-9.9379	254.14	-78.671	84.778	95.819	73.574	57.978	322.17	-82.358	-135.59	187.96	-104.78	-3.9795	49.894	-107.55	230.26	1697.9	17.661	157.45	875.78	394.64	144.2	371.92	133.99	95.982	806.62	-153.66	-84.457	178.42	-32.818	235.43	1698.8	93.972	-5.4781	34.535	97.371	-40.441	66.448	-79.386	146.75	1046.7	189.94
588	2.94	232.96	857.12	397.28	36.89	1318.5	-209.5	161.72	858.49	-263.09	40.229	1016.3	-254.94	86.982	889.13	-249.48	107.02	190.57	114.19	54.99	1655.4	-9.5053	5.8157	1165.1	-240.75	243.99	31.626	131.2	136.86	624.59	-151.01	178.96	716.37	199.23	140.4	24.22	186.15	156.74	908.97	-208.06	-19.499	1151.1	-167.35	99.627	275.8	187.37	191.99	39.897	107.89	66.748	1660.1	131.27	-67.67	1036.8	104.39	212.62	1264.9	35.962	104.85	500.68	207.4	34.55	1524.4	63.325	108.38	808.5	240.88	117.94	715.16	-154.29	117.01	1004.4	393.32	186.94	730.86	-139.46	-69.912	1301.8	63.37	139.32	529.62	-147.31	47.573	70.265	150.84	126.83	1049.3	-92.07	164.8	1437.6	49.978	-76.095	1031.7	27.058	100.36	1300.6	317.76	-32.157	1430.7	196.55	112.07	618.58	218.18	41.86	1126	294.81	90.821	1486.1	-110.61	-181.83	178.45	-44.69	72.658	1148.6	366.53	186.09	526.28	-26.242	131.6	386.64	-87.894	219.9	892.04	341.42	113.75	711.21	232.82	38.569	348.16	-145.95	-81.285	83.537	-146.94	126.38	281.07	122.99	121.59	1468.2	214.07	113.37	517.25	76.283	2.4595	252.95	-77.851	84.822	95.868	73.659	69.284	322.11	-81.703	-122.02	184.6	-103.82	12.307	48.921	-106.56	235.19	1698.2	18.172	167.65	877.22	395.41	145.03	371.82	134.11	102.04	807.46	-153.61	-70.741	176.07	-31.904	240.41	1699.1	94.475	-5.5137	34.621	97.349	-24.425	65.088	-78.363	151.1	1047.1	190.65
589	2.945	243.48	859.46	397.66	40.391	1319	-208.89	161.91	857.93	-261.93	41.569	1016.7	-253.88	87.41	889.16	-248.27	107.31	190.55	114.27	59.876	1655.7	-8.916	8.2789	1165.8	-239.86	243.98	31.583	131.25	144.4	625.67	-150.89	181.78	715.97	199.41	140.36	24.208	186.2	157.38	908.57	-207	-17.067	1152	-166.44	100.14	275.81	187.47	191.98	39.932	107.95	71.723	1660.4	131.86	-63.051	1037.2	104.59	217.34	1265.2	36.409	106.09	500.75	207.51	39.415	1524.8	63.871	112.03	808.65	240.98	124.71	716.08	-154.27	125.8	1005.3	394.27	193.65	732.33	-139.38	-65.091	1302.1	63.85	147.64	530.66	-147.1	47.571	70.408	150.89	131.9	1049.8	-91.437	169.61	1438	50.422	-71.486	1032.1	27.224	106.46	1301.2	318.41	-27.146	1430.9	197.21	114.16	618.72	218.34	48.942	1126.2	296.02	95.467	1486.4	-110.18	-167.99	173.72	-43.735	79.829	1149.1	367.66	194.39	527.84	-26.075	141.81	387.59	-87.301	229.69	894.05	341.77	116.58	711.55	233.3	49.452	347.4	-145.31	-65.48	80.85	-145.87	126.95	280.99	123.1	126.57	1468.6	214.46	114.71	517.3	76.369	14.93	251.67	-77.007	84.865	95.919	73.744	80.591	321.98	-80.998	-108.28	181.05	-102.88	28.821	47.933	-105.57	240.11	1698.4	18.667	177.83	878.69	396.15	145.87	371.72	134.23	108.04	808.28	-153.56	-56.883	173.6	-30.998	245.39	1699.3	94.964	-5.5541	34.709	97.332	-8.1914	63.679	-77.343	155.43	1047.4	191.37
590	2.95	253.95	861.83	398.01	43.891	1319.5	-208.31	162.11	857.39	-260.77	42.93	1017.1	-252.85	87.86	889.2	-247.06	107.61	190.52	114.35	64.76	1656	-8.3465	10.762	1166.4	-239.01	243.96	31.539	131.3	151.86	626.73	-150.75	184.63	715.55	199.57	140.32	24.196	186.24	158.03	908.18	-205.93	-14.625	1152.9	-165.57	100.66	275.83	187.57	191.96	39.964	108.01	76.688	1660.7	132.43	-58.438	1037.6	104.78	222.07	1265.4	36.857	107.33	500.81	207.61	44.272	1525.1	64.4	115.67	808.8	241.05	131.41	716.98	-154.23	134.54	1006.1	395.19	200.28	733.76	-139.28	-60.281	1302.4	64.29	155.85	531.66	-146.87	47.572	70.557	150.94	136.96	1050.2	-90.825	174.42	1438.2	50.856	-66.89	1032.5	27.364	112.52	1301.7	319.04	-22.147	1431.1	197.86	116.25	618.87	218.49	56.008	1126.3	297.2	100.12	1486.8	-109.78	-153.95	168.77	-42.798	86.955	1149.6	368.77	202.54	529.37	-25.862	151.93	388.51	-86.644	239.47	896.08	342.1	119.41	711.88	233.73	60.367	346.52	-144.66	-49.447	78.075	-144.83	127.53	280.92	123.2	131.54	1469	214.83	116.06	517.35	76.449	27.475	250.31	-76.145	84.908	95.972	73.829	91.898	321.8	-80.249	-94.366	177.35	-101.95	45.553	46.951	-104.58	245.02	1698.6	19.146	187.98	880.18	396.86	146.71	371.63	134.34	113.98	809.05	-153.51	-42.881	171	-30.104	250.36	1699.5	95.438	-5.5973	34.803	97.324	8.2528	62.237	-76.339	159.75	1047.7	192.09
591	2.955	264.38	864.22	398.36	47.392	1319.9	-207.76	162.33	856.86	-259.61	44.316	1017.4	-251.84	88.335	889.25	-245.85	107.92	190.51	114.42	69.64	1656.3	-7.7969	13.27	1167	-238.19	243.95	31.498	131.35	159.23	627.75	-150.58	187.48	715.13	199.7	140.27	24.185	186.29	158.71	907.8	-204.88	-12.169	1153.8	-164.72	101.18	275.85	187.66	191.94	39.993	108.08	81.647	1661	132.99	-53.829	1037.9	104.94	226.79	1265.6	37.302	108.57	500.87	207.7	49.122	1525.3	64.912	119.32	808.92	241.11	138.04	717.83	-154.18	143.25	1007	396.09	206.82	735.14	-139.16	-55.481	1302.7	64.689	163.96	532.6	-146.61	47.576	70.712	150.99	141.99	1050.5	-90.237	179.22	1438.5	51.279	-62.306	1032.8	27.478	118.53	1302.3	319.67	-17.161	1431.3	198.48	118.36	619.01	218.62	63.053	1126.4	298.36	104.79	1487.1	-109.39	-139.7	163.63	-41.878	94.037	1150.1	369.85	210.55	530.86	-25.603	161.97	389.41	-85.931	249.24	898.13	342.43	122.25	712.18	234.11	71.307	345.54	-144.01	-33.198	75.231	-143.82	128.12	280.84	123.31	136.49	1469.4	215.19	117.45	517.39	76.523	40.094	248.88	-75.273	84.952	96.028	73.912	103.2	321.57	-79.464	-80.283	173.49	-101.04	62.493	45.993	-103.61	249.94	1698.8	19.61	198.09	881.69	397.53	147.56	371.53	134.46	119.84	809.78	-153.44	-28.734	168.3	-29.228	255.32	1699.7	95.898	-5.6411	34.905	97.325	24.898	60.776	-75.365	164.07	1048	192.81
592	2.96	274.75	866.63	398.68	50.899	1320.3	-207.22	162.57	856.34	-258.45	45.73	1017.8	-250.85	88.835	889.3	-244.64	108.25	190.49	114.5	74.518	1656.5	-7.2671	15.806	1167.6	-237.4	243.94	31.457	131.4	166.52	628.74	-150.39	190.36	714.7	199.82	140.22	24.175	186.33	159.41	907.43	-203.83	-9.6969	1154.7	-163.9	101.7	275.87	187.75	191.92	40.015	108.14	86.598	1661.3	133.52	-49.226	1038.2	105.09	231.52	1265.8	37.74	109.83	500.93	207.79	53.967	1525.6	65.407	122.97	809.02	241.15	144.61	718.66	-154.1	151.91	1007.9	396.96	213.27	736.49	-139	-50.69	1302.9	65.048	171.97	533.5	-146.32	47.583	70.872	151.03	146.99	1050.8	-89.679	184.01	1438.7	51.69	-57.731	1033.1	27.57	124.51	1302.8	320.29	-12.187	1431.5	199.08	120.48	619.15	218.74	70.07	1126.5	299.48	109.46	1487.4	-109.01	-125.25	158.31	-40.976	101.07	1150.6	370.91	218.41	532.3	-25.297	171.92	390.27	-85.17	258.97	900.22	342.75	125.1	712.45	234.43	82.268	344.45	-143.34	-16.742	72.336	-142.84	128.72	280.76	123.42	141.42	1469.7	215.53	118.85	517.42	76.588	52.787	247.37	-74.398	84.999	96.086	73.994	114.5	321.29	-78.651	-66.033	169.51	-100.16	79.627	45.076	-102.68	254.86	1698.9	20.058	208.16	883.2	398.17	148.42	371.44	134.58	125.63	810.47	-153.37	-14.44	165.51	-28.374	260.28	1699.9	96.343	-5.6822	35.018	97.338	41.734	59.311	-74.434	168.4	1048.3	193.53
